<mxfile host="app.diagrams.net" modified="2023-11-15T13:08:34.463Z" agent="Mozilla/5.0 (Windows NT 10.0; Win64; x64) AppleWebKit/537.36 (KHTML, like Gecko) Chrome/119.0.0.0 Safari/537.36" etag="Bn3rLuQxyzFhxOJpL8GC" version="22.1.1" type="github">
  <diagram name="Страница — 1" id="8v1wEFvi7GDDfeoe-wUZ">
    <mxGraphModel dx="1647" dy="897" grid="1" gridSize="10" guides="1" tooltips="1" connect="1" arrows="1" fold="1" page="1" pageScale="1" pageWidth="827" pageHeight="1169" math="0" shadow="0">
      <root>
        <mxCell id="0" />
        <mxCell id="1" parent="0" />
        <mxCell id="JR10sc46IG1lBTu89r6D-1" value="Пользователь" style="shape=umlActor;verticalLabelPosition=bottom;verticalAlign=top;html=1;spacingLeft=1;" vertex="1" parent="1">
          <mxGeometry x="54" y="115" width="20" height="40" as="geometry" />
        </mxCell>
        <mxCell id="JR10sc46IG1lBTu89r6D-2" style="edgeStyle=orthogonalEdgeStyle;rounded=0;orthogonalLoop=1;jettySize=auto;html=1;exitX=1;exitY=0.5;exitDx=0;exitDy=0;entryX=0;entryY=0.5;entryDx=0;entryDy=0;fontColor=#000000;spacingLeft=1;" edge="1" parent="1" source="JR10sc46IG1lBTu89r6D-3" target="JR10sc46IG1lBTu89r6D-10">
          <mxGeometry relative="1" as="geometry" />
        </mxCell>
        <mxCell id="JR10sc46IG1lBTu89r6D-3" value="" style="rounded=1;whiteSpace=wrap;html=1;dashed=1;align=left;spacingLeft=1;" vertex="1" parent="1">
          <mxGeometry x="244" y="85" width="140" height="110" as="geometry" />
        </mxCell>
        <mxCell id="JR10sc46IG1lBTu89r6D-4" value="" style="endArrow=classic;html=1;entryX=0;entryY=0.5;entryDx=0;entryDy=0;spacingLeft=1;" edge="1" parent="1" target="JR10sc46IG1lBTu89r6D-3">
          <mxGeometry width="50" height="50" relative="1" as="geometry">
            <mxPoint x="84" y="140" as="sourcePoint" />
            <mxPoint x="184" y="245" as="targetPoint" />
          </mxGeometry>
        </mxCell>
        <mxCell id="JR10sc46IG1lBTu89r6D-5" value="endpoint: &lt;br&gt;/workflowName/actionName" style="edgeLabel;html=1;align=center;verticalAlign=middle;resizable=0;points=[];spacingLeft=1;" vertex="1" connectable="0" parent="JR10sc46IG1lBTu89r6D-4">
          <mxGeometry x="-0.4287" y="2" relative="1" as="geometry">
            <mxPoint x="28.28" y="-18" as="offset" />
          </mxGeometry>
        </mxCell>
        <mxCell id="JR10sc46IG1lBTu89r6D-6" value="api-proxy" style="text;html=1;strokeColor=none;fillColor=none;align=center;verticalAlign=middle;whiteSpace=wrap;rounded=0;dashed=1;spacingLeft=1;" vertex="1" parent="1">
          <mxGeometry x="254" y="90" width="60" height="20" as="geometry" />
        </mxCell>
        <mxCell id="JR10sc46IG1lBTu89r6D-7" value="security" style="rounded=0;whiteSpace=wrap;html=1;fillColor=#f5f5f5;strokeColor=#666666;fontColor=#333333;spacingLeft=1;" vertex="1" parent="1">
          <mxGeometry x="254" y="130" width="120" height="20" as="geometry" />
        </mxCell>
        <mxCell id="JR10sc46IG1lBTu89r6D-8" style="edgeStyle=orthogonalEdgeStyle;rounded=0;orthogonalLoop=1;jettySize=auto;html=1;exitX=1;exitY=0.5;exitDx=0;exitDy=0;entryX=0;entryY=0.5;entryDx=0;entryDy=0;fontColor=#000000;" edge="1" parent="1" source="JR10sc46IG1lBTu89r6D-10" target="JR10sc46IG1lBTu89r6D-13">
          <mxGeometry relative="1" as="geometry" />
        </mxCell>
        <mxCell id="JR10sc46IG1lBTu89r6D-9" style="edgeStyle=orthogonalEdgeStyle;rounded=0;orthogonalLoop=1;jettySize=auto;html=1;exitX=1;exitY=0.5;exitDx=0;exitDy=0;entryX=0;entryY=0.5;entryDx=0;entryDy=0;fontColor=#000000;spacingLeft=1;" edge="1" parent="1" source="JR10sc46IG1lBTu89r6D-10" target="JR10sc46IG1lBTu89r6D-15">
          <mxGeometry relative="1" as="geometry" />
        </mxCell>
        <mxCell id="JR10sc46IG1lBTu89r6D-10" value="" style="rounded=1;whiteSpace=wrap;html=1;dashed=1;align=left;spacingLeft=1;" vertex="1" parent="1">
          <mxGeometry x="424" y="85" width="140" height="110" as="geometry" />
        </mxCell>
        <mxCell id="JR10sc46IG1lBTu89r6D-11" value="gui" style="rounded=0;whiteSpace=wrap;html=1;fillColor=#f5f5f5;strokeColor=#666666;fontColor=#333333;spacingLeft=1;" vertex="1" parent="1">
          <mxGeometry x="444" y="130" width="100" height="20" as="geometry" />
        </mxCell>
        <mxCell id="JR10sc46IG1lBTu89r6D-12" value="&lt;font&gt;frontend&lt;/font&gt;" style="text;html=1;strokeColor=none;fillColor=none;align=center;verticalAlign=middle;whiteSpace=wrap;rounded=0;dashed=1;spacingLeft=1;" vertex="1" parent="1">
          <mxGeometry x="434" y="90" width="60" height="20" as="geometry" />
        </mxCell>
        <mxCell id="JR10sc46IG1lBTu89r6D-13" value="" style="rounded=1;whiteSpace=wrap;html=1;dashed=1;align=left;" vertex="1" parent="1">
          <mxGeometry x="644" y="10" width="140" height="110" as="geometry" />
        </mxCell>
        <mxCell id="JR10sc46IG1lBTu89r6D-14" value="&lt;font&gt;workflow-api&lt;/font&gt;" style="text;html=1;strokeColor=none;fillColor=none;align=center;verticalAlign=middle;whiteSpace=wrap;rounded=0;dashed=1;" vertex="1" parent="1">
          <mxGeometry x="654" y="15" width="80" height="20" as="geometry" />
        </mxCell>
        <mxCell id="JR10sc46IG1lBTu89r6D-15" value="" style="rounded=1;whiteSpace=wrap;html=1;dashed=1;align=left;spacingLeft=1;" vertex="1" parent="1">
          <mxGeometry x="644" y="150" width="140" height="110" as="geometry" />
        </mxCell>
        <mxCell id="JR10sc46IG1lBTu89r6D-16" value="&lt;font&gt;data-api&lt;/font&gt;" style="text;html=1;strokeColor=none;fillColor=none;align=center;verticalAlign=middle;whiteSpace=wrap;rounded=0;dashed=1;spacingLeft=1;" vertex="1" parent="1">
          <mxGeometry x="644" y="155" width="80" height="20" as="geometry" />
        </mxCell>
        <mxCell id="JR10sc46IG1lBTu89r6D-17" value="workflow" style="rounded=0;whiteSpace=wrap;html=1;fillColor=#f5f5f5;strokeColor=#666666;fontColor=#333333;" vertex="1" parent="1">
          <mxGeometry x="664" y="55" width="100" height="20" as="geometry" />
        </mxCell>
        <mxCell id="JR10sc46IG1lBTu89r6D-18" value="query" style="rounded=0;whiteSpace=wrap;html=1;fillColor=#f5f5f5;strokeColor=#666666;fontColor=#333333;spacingLeft=1;" vertex="1" parent="1">
          <mxGeometry x="664" y="180" width="100" height="20" as="geometry" />
        </mxCell>
        <mxCell id="JR10sc46IG1lBTu89r6D-19" value="object" style="rounded=0;whiteSpace=wrap;html=1;fillColor=#f5f5f5;strokeColor=#666666;fontColor=#333333;spacingLeft=1;" vertex="1" parent="1">
          <mxGeometry x="664" y="210" width="100" height="20" as="geometry" />
        </mxCell>
        <mxCell id="JR10sc46IG1lBTu89r6D-20" value="Пользователь" style="shape=umlActor;verticalLabelPosition=bottom;verticalAlign=top;html=1;spacingLeft=1;" vertex="1" parent="1">
          <mxGeometry x="44" y="455" width="20" height="40" as="geometry" />
        </mxCell>
        <mxCell id="JR10sc46IG1lBTu89r6D-21" style="edgeStyle=orthogonalEdgeStyle;rounded=0;orthogonalLoop=1;jettySize=auto;html=1;exitX=1;exitY=0.5;exitDx=0;exitDy=0;fontColor=#000000;spacingLeft=1;" edge="1" parent="1" source="JR10sc46IG1lBTu89r6D-22" target="JR10sc46IG1lBTu89r6D-32">
          <mxGeometry relative="1" as="geometry" />
        </mxCell>
        <mxCell id="JR10sc46IG1lBTu89r6D-22" value="" style="rounded=1;whiteSpace=wrap;html=1;dashed=1;align=left;spacingLeft=1;" vertex="1" parent="1">
          <mxGeometry x="234" y="425" width="140" height="110" as="geometry" />
        </mxCell>
        <mxCell id="JR10sc46IG1lBTu89r6D-23" value="" style="endArrow=classic;html=1;entryX=0;entryY=0.5;entryDx=0;entryDy=0;spacingLeft=1;" edge="1" parent="1" target="JR10sc46IG1lBTu89r6D-22">
          <mxGeometry width="50" height="50" relative="1" as="geometry">
            <mxPoint x="74" y="480" as="sourcePoint" />
            <mxPoint x="174" y="585" as="targetPoint" />
          </mxGeometry>
        </mxCell>
        <mxCell id="JR10sc46IG1lBTu89r6D-24" value="endpoint: &lt;br&gt;/workflow/pagination" style="edgeLabel;html=1;align=center;verticalAlign=middle;resizable=0;points=[];spacingLeft=1;" vertex="1" connectable="0" parent="JR10sc46IG1lBTu89r6D-23">
          <mxGeometry x="-0.4287" y="2" relative="1" as="geometry">
            <mxPoint x="28.28" y="-18" as="offset" />
          </mxGeometry>
        </mxCell>
        <mxCell id="JR10sc46IG1lBTu89r6D-25" value="&lt;font&gt;api-proxy&lt;/font&gt;" style="text;html=1;strokeColor=none;fillColor=none;align=center;verticalAlign=middle;whiteSpace=wrap;rounded=0;dashed=1;spacingLeft=1;" vertex="1" parent="1">
          <mxGeometry x="244" y="430" width="60" height="20" as="geometry" />
        </mxCell>
        <mxCell id="JR10sc46IG1lBTu89r6D-26" value="security" style="rounded=0;whiteSpace=wrap;html=1;fillColor=#f5f5f5;strokeColor=#666666;fontColor=#333333;spacingLeft=1;" vertex="1" parent="1">
          <mxGeometry x="244" y="470" width="120" height="20" as="geometry" />
        </mxCell>
        <mxCell id="JR10sc46IG1lBTu89r6D-27" value="" style="rounded=1;whiteSpace=wrap;html=1;dashed=1;align=left;spacingLeft=1;" vertex="1" parent="1">
          <mxGeometry x="624" y="355" width="139" height="110" as="geometry" />
        </mxCell>
        <mxCell id="JR10sc46IG1lBTu89r6D-28" value="API workflow-admin&amp;nbsp;" style="rounded=0;whiteSpace=wrap;html=1;fillColor=#f5f5f5;strokeColor=#666666;fontColor=#333333;spacingLeft=1;" vertex="1" parent="1">
          <mxGeometry x="634" y="402" width="120" height="20" as="geometry" />
        </mxCell>
        <mxCell id="JR10sc46IG1lBTu89r6D-29" value="workflow-api" style="text;html=1;strokeColor=none;fillColor=none;align=center;verticalAlign=middle;whiteSpace=wrap;rounded=0;dashed=1;spacingLeft=1;" vertex="1" parent="1">
          <mxGeometry x="634" y="360" width="90" height="20" as="geometry" />
        </mxCell>
        <mxCell id="JR10sc46IG1lBTu89r6D-30" style="edgeStyle=orthogonalEdgeStyle;rounded=0;orthogonalLoop=1;jettySize=auto;html=1;exitX=1;exitY=0.5;exitDx=0;exitDy=0;fontColor=#000000;spacingLeft=1;" edge="1" parent="1" source="JR10sc46IG1lBTu89r6D-32" target="JR10sc46IG1lBTu89r6D-27">
          <mxGeometry relative="1" as="geometry" />
        </mxCell>
        <mxCell id="JR10sc46IG1lBTu89r6D-31" style="edgeStyle=orthogonalEdgeStyle;rounded=0;orthogonalLoop=1;jettySize=auto;html=1;exitX=1;exitY=0.5;exitDx=0;exitDy=0;" edge="1" parent="1" source="JR10sc46IG1lBTu89r6D-32" target="JR10sc46IG1lBTu89r6D-39">
          <mxGeometry relative="1" as="geometry" />
        </mxCell>
        <mxCell id="JR10sc46IG1lBTu89r6D-32" value="" style="rounded=1;whiteSpace=wrap;html=1;dashed=1;align=left;spacingLeft=1;" vertex="1" parent="1">
          <mxGeometry x="414" y="425" width="140" height="110" as="geometry" />
        </mxCell>
        <mxCell id="JR10sc46IG1lBTu89r6D-33" value="gui (workflow-admin)" style="rounded=0;whiteSpace=wrap;html=1;fillColor=#f5f5f5;strokeColor=#666666;fontColor=#333333;spacingLeft=1;" vertex="1" parent="1">
          <mxGeometry x="424" y="470" width="120" height="20" as="geometry" />
        </mxCell>
        <mxCell id="JR10sc46IG1lBTu89r6D-34" value="&lt;font&gt;frontend&lt;/font&gt;" style="text;html=1;strokeColor=none;fillColor=none;align=center;verticalAlign=middle;whiteSpace=wrap;rounded=0;dashed=1;spacingLeft=1;" vertex="1" parent="1">
          <mxGeometry x="424" y="430" width="60" height="20" as="geometry" />
        </mxCell>
        <mxCell id="JR10sc46IG1lBTu89r6D-35" value="" style="endArrow=none;dashed=1;html=1;dashPattern=1 3;strokeWidth=2;fontColor=#000000;entryX=0.062;entryY=0.99;entryDx=0;entryDy=0;entryPerimeter=0;spacingLeft=1;" edge="1" parent="1" target="JR10sc46IG1lBTu89r6D-3">
          <mxGeometry width="50" height="50" relative="1" as="geometry">
            <mxPoint x="204" y="225" as="sourcePoint" />
            <mxPoint x="264" y="205" as="targetPoint" />
          </mxGeometry>
        </mxCell>
        <mxCell id="JR10sc46IG1lBTu89r6D-36" value="&lt;font style=&quot;font-size: 8px&quot;&gt;Что включено в проверку:&lt;br&gt;- доступные ресурсы&lt;br&gt;- доступные эндпоинты&lt;br&gt;- проверки RBAC&lt;br&gt;- проверки access-control&lt;br&gt;- проверки backend-validation&amp;nbsp;&lt;br&gt;&lt;/font&gt;" style="ellipse;whiteSpace=wrap;html=1;dashed=1;fontColor=#000000;spacingLeft=1;" vertex="1" parent="1">
          <mxGeometry x="124" y="230" width="160" height="100" as="geometry" />
        </mxCell>
        <mxCell id="JR10sc46IG1lBTu89r6D-37" value="Формы с наличием действия workflowAction" style="text;html=1;strokeColor=none;fillColor=none;align=center;verticalAlign=middle;whiteSpace=wrap;rounded=0;dashed=1;fontColor=#000000;fontStyle=1" vertex="1" parent="1">
          <mxGeometry x="18" y="35" width="286" height="20" as="geometry" />
        </mxCell>
        <mxCell id="JR10sc46IG1lBTu89r6D-38" value="Формы без workflowAction (сервисные формы, напр., журнал процессов)" style="text;html=1;strokeColor=none;fillColor=none;align=center;verticalAlign=middle;whiteSpace=wrap;rounded=0;dashed=1;fontColor=#000000;fontStyle=1" vertex="1" parent="1">
          <mxGeometry x="28" y="390" width="452" height="20" as="geometry" />
        </mxCell>
        <mxCell id="JR10sc46IG1lBTu89r6D-39" value="" style="rounded=1;whiteSpace=wrap;html=1;dashed=1;align=left;spacingLeft=1;" vertex="1" parent="1">
          <mxGeometry x="624" y="490" width="140" height="59" as="geometry" />
        </mxCell>
        <mxCell id="JR10sc46IG1lBTu89r6D-40" value="&lt;font&gt;data-api&lt;/font&gt;" style="text;html=1;strokeColor=none;fillColor=none;align=center;verticalAlign=middle;whiteSpace=wrap;rounded=0;dashed=1;spacingLeft=1;" vertex="1" parent="1">
          <mxGeometry x="624" y="495" width="80" height="20" as="geometry" />
        </mxCell>
      </root>
    </mxGraphModel>
  </diagram>
</mxfile>
